<?xml version="1.0" standalone="no"?>
<!DOCTYPE svg PUBLIC "-//W3C//DTD SVG 20010904//EN"
 "http://www.w3.org/TR/2001/REC-SVG-20010904/DTD/svg10.dtd">
<svg version="1.0" xmlns="http://www.w3.org/2000/svg"
 width="1420.000000pt" height="1420.000000pt" viewBox="0 0 1420.000000 1420.000000"
 preserveAspectRatio="xMidYMid meet">
<metadata>
Created by potrace 1.14, written by Peter Selinger 2001-2017
</metadata>
<g transform="translate(0.000000,1420.000000) scale(0.100000,-0.100000)"
fill="#000000" stroke="none">
<path d="M0 10650 l0 -3551 121 3 121 3 48 116 c184 445 439 871 752 1255 139
172 481 516 648 654 675 558 1444 920 2336 1099 390 79 738 112 1179 112 400
0 781 -31 1085 -91 58 -11 108 -20 113 -20 4 0 7 110 7 244 l0 244 892 1721
892 1721 548 0 c301 0 548 -2 548 -5 0 -3 -379 -726 -842 -1608 -462 -881
-843 -1610 -846 -1620 -4 -16 24 -17 529 -15 l534 3 3 678 2 677 490 0 490 0
2 -677 3 -678 353 -3 352 -2 0 -460 0 -460 -355 0 -355 0 0 -465 0 -465 -416
0 -416 0 73 -66 c530 -478 984 -1132 1260 -1811 l33 -83 2008 0 2008 0 0 980
0 980 -1610 0 -1610 0 0 389 0 388 931 954 c512 525 957 986 989 1024 174 212
269 423 289 642 48 528 -326 892 -869 843 -306 -27 -522 -140 -799 -417 -73
-74 -137 -133 -142 -131 -4 2 -148 142 -319 312 -270 268 -309 310 -298 325
175 226 424 452 631 573 158 92 356 174 537 222 48 12 -681 14 -5937 15
l-5993 1 0 -3550z"/>
<path d="M13015 14193 c11 -3 70 -21 130 -40 541 -173 906 -570 1034 -1123
l19 -85 1 628 1 627 -602 -1 c-332 -1 -594 -3 -583 -6z"/>
<path d="M14182 12221 c-52 -251 -215 -555 -444 -831 -116 -139 -122 -145
-823 -875 l-500 -520 889 -3 c489 -1 891 -1 893 1 2 2 2 519 1 1148 -3 978 -5
1135 -16 1080z"/>
<path d="M7390 9934 c163 -66 477 -219 626 -304 149 -86 397 -249 524 -346 58
-44 111 -83 118 -88 9 -6 12 76 12 393 l0 401 -707 0 -708 -1 135 -55z"/>
<path d="M4910 9090 c-702 -55 -1320 -246 -1855 -574 -536 -329 -1002 -813
-1299 -1348 l-38 -68 3491 0 c1920 0 3491 4 3491 8 0 15 -160 274 -237 384
-105 150 -265 340 -398 473 -627 629 -1441 1007 -2386 1110 -173 19 -610 27
-769 15z"/>
</g>
</svg>
