<?xml version="1.0" encoding="UTF-8"?>
<!DOCTYPE svg PUBLIC "-//W3C//DTD SVG 1.1//EN" "http://www.w3.org/Graphics/SVG/1.1/DTD/svg11.dtd">
<svg xmlns="http://www.w3.org/2000/svg" xmlns:xlink="http://www.w3.org/1999/xlink" version="1.1" width="38px" height="32px" viewBox="-0.5 -0.5 38 32"><defs/><g><path d="M 11.02 13.23 C 8.96 10.97 8.4 7.56 9.62 4.67 C 10.84 1.78 13.58 0 16.52 0.2 C 19.45 0.4 21.97 2.54 22.84 5.57 C 23.72 2.54 26.24 0.4 29.17 0.2 C 32.11 0 34.85 1.78 36.07 4.67 C 37.29 7.56 36.73 10.97 34.66 13.23 L 22.84 26 Z" fill="#005bbb" stroke="none" pointer-events="all"/><path d="M 5.59 17.5 C 4.03 15.78 3.6 13.2 4.53 11 C 5.45 8.81 7.54 7.46 9.76 7.61 C 11.99 7.76 13.9 9.38 14.57 11.68 C 15.24 9.38 17.15 7.76 19.38 7.61 C 21.6 7.46 23.69 8.81 24.61 11 C 25.54 13.2 25.11 15.78 23.55 17.5 L 14.57 27.2 Z" fill="#ffd501" stroke="none" transform="rotate(-30,14.57,17.33)" pointer-events="all"/></g></svg>